<svg width="125" height="125" viewBox="0 0 125 125" fill="none" xmlns="http://www.w3.org/2000/svg">
<path fill-rule="evenodd" clip-rule="evenodd" d="M78.0734 59.8958C78.0734 68.5417 71.1463 75.5208 62.5005 75.5208C53.8546 75.5208 46.8755 68.5417 46.8755 59.8958V28.6458C46.8755 20 53.8546 13.0208 62.5005 13.0208C71.1463 13.0208 78.1255 20 78.1255 28.6458L78.0734 59.8958ZM89.8462 63.5937C90.1587 61.4583 91.9816 59.8958 94.1691 59.8958C96.8774 59.8958 98.9608 62.2917 98.5962 64.9479C96.2004 80.4167 83.1274 92.6562 67.7108 94.8958V106.771C67.7108 109.635 65.367 111.979 62.5024 111.979C59.6379 111.979 57.2941 109.635 57.2941 106.771V94.8958C41.8254 92.5521 28.8045 80.4167 26.4087 64.9479C26.0441 62.2917 28.1274 59.8958 30.8358 59.8958C32.9712 59.8958 34.8462 61.4583 35.1587 63.5937C37.0858 77.2396 49.3254 86.4583 62.5024 86.4583C75.6795 86.4583 87.9191 77.1875 89.8462 63.5937Z" fill="#F4F4FA"/>
</svg>
