<svg width="150" height="65" viewBox="0 0 150 65" fill="none" xmlns="http://www.w3.org/2000/svg">
<path d="M75.5866 19L63.3866 47H58.2666L46.0266 19H51.6666L60.9866 40.6L70.3866 19H75.5866ZM78.5413 19H83.7413V47H78.5413V19ZM109.635 47L103.915 38.8C103.675 38.8267 103.315 38.84 102.835 38.84H96.5147V47H91.3147V19H102.835C105.261 19 107.368 19.4 109.155 20.2C110.968 21 112.355 22.1467 113.315 23.64C114.275 25.1333 114.755 26.9067 114.755 28.96C114.755 31.0667 114.235 32.88 113.195 34.4C112.181 35.92 110.715 37.0533 108.795 37.8L115.235 47H109.635ZM109.515 28.96C109.515 27.1733 108.928 25.8 107.755 24.84C106.581 23.88 104.861 23.4 102.595 23.4H96.5147V34.56H102.595C104.861 34.56 106.581 34.08 107.755 33.12C108.928 32.1333 109.515 30.7467 109.515 28.96ZM138.733 40.52H124.733L121.973 47H116.612L129.213 19H134.333L146.973 47H141.533L138.733 40.52ZM137.012 36.44L131.733 24.2L126.493 36.44H137.012Z" fill="#F4F4FA"/>
<path d="M32.9961 29.0614C33.0321 27.3145 32.8171 25.5715 32.3579 23.8856C31.7419 21.7902 30.4634 19.9509 28.714 18.6434C25.273 15.9473 22.057 14.83 18.2972 15.0208C16.3139 15.1581 14.3432 15.4399 12.4009 15.8638C9.65118 16.4167 7.65365 17.3834 6.29372 18.8195C5.21601 19.9672 4.38385 21.3227 3.84816 22.803C3.6211 23.4553 3.43623 24.1215 3.29468 24.7975L3.24592 25.0084C3.11753 25.4832 2.94424 25.9447 2.7284 26.3866C2.60283 26.6683 2.47665 26.9499 2.36754 27.24C2.22622 27.562 2.16977 27.9147 2.20357 28.2647C2.32759 28.8092 2.64323 29.291 3.09292 29.6222C3.39221 29.8965 3.58849 30.0885 3.59032 30.2641C3.56648 30.355 3.53061 30.4423 3.48364 30.5237C2.75366 32.0629 1.85888 33.5183 0.814988 34.8644C0.377323 35.399 -0.0810668 36.0226 0.012196 36.6559C0.145415 37.1365 0.462788 37.5452 0.89545 37.7933C1.09714 37.9322 1.30976 38.0546 1.53122 38.1591C1.79394 38.2932 2.23465 38.5175 2.26269 38.679C2.3022 38.8843 2.27905 39.0967 2.19625 39.2886C2.10543 39.4788 2.01338 39.6434 1.93109 39.7866C1.70738 40.1822 1.3325 40.8454 1.89635 41.3197C2.02801 41.4355 2.25355 41.6129 2.45958 41.7707C2.30735 42.0385 2.23897 42.3457 2.2633 42.6528C2.29639 42.8914 2.42624 43.1059 2.62234 43.2459C2.75888 43.3428 2.90456 43.4287 3.04903 43.5092C3.40745 43.7134 3.54704 43.8091 3.59763 43.9968C3.63052 44.2452 3.60804 44.4977 3.5318 44.7362C3.49645 44.8966 3.46231 45.0563 3.44098 45.216C3.37921 45.7704 3.44917 46.3316 3.64518 46.8539C3.96038 48.0123 5.12789 48.7208 6.30104 48.4655C8.04156 48.0458 9.75814 47.5325 11.4433 46.9276C12.8136 47.7371 13.6798 50.1857 13.9053 51.1043C13.9721 51.377 14.2165 51.5687 14.4972 51.5688L29.7972 51.5268C29.9902 51.5262 30.1715 51.4342 30.286 51.2788C30.4005 51.1235 30.4346 50.9231 30.3781 50.7386C30.227 50.3226 30.0178 49.93 29.7569 49.5725C29.6129 49.3657 29.4825 49.1497 29.3668 48.9258C29.092 48.3635 28.8617 47.7806 28.678 47.1824C28.3301 46.005 28.0897 44.7984 27.9599 43.5775C27.7439 41.7547 28.0192 39.9073 28.7573 38.2267C29.2084 37.2962 29.7636 36.4197 30.4122 35.6142C30.7779 35.1186 31.1601 34.6066 31.5027 34.0659C32.4647 32.5729 32.9826 30.8374 32.9961 29.0614ZM29.4339 34.8931C28.7296 35.7723 28.128 36.729 27.6405 37.7446C26.8157 39.6245 26.5084 41.6907 26.7506 43.7293C26.8871 45.0225 27.1413 46.3005 27.5101 47.5475C27.7121 48.2045 27.9648 48.8449 28.2659 49.4628C28.4046 49.7354 28.5616 49.9984 28.7359 50.2497L28.7798 50.3162L14.958 50.3552C14.552 48.9087 13.8165 47.576 12.8093 46.4613C12.9648 46.4071 13.1141 46.3565 13.2488 46.3077C13.7109 46.1462 14.0601 46.0236 14.2345 45.9688C16.8477 45.1483 18.1546 43.9609 18.1192 42.4388C18.0994 42.1074 17.827 41.8475 17.495 41.8433C17.3333 41.8471 17.1798 41.915 17.0682 42.0321C16.9566 42.1492 16.8962 42.3058 16.9001 42.4675C16.9147 43.0953 16.4008 44.0109 13.8681 44.8057C13.6853 44.863 13.325 44.9886 12.8453 45.1575C12.4107 45.3098 11.8773 45.4964 11.2939 45.6957C9.57689 46.3167 7.82754 46.8446 6.05355 47.2769C5.48242 47.387 4.92655 47.0255 4.79542 46.4589C4.66379 46.1167 4.6135 45.7486 4.64852 45.3836C4.66497 45.2574 4.69362 45.1312 4.72166 45.0045C4.84673 44.5814 4.8664 44.1342 4.77896 43.7018C4.60398 43.1421 4.19348 42.6867 3.65493 42.4547L3.52449 42.3797C3.58976 42.2466 3.66796 42.1202 3.75795 42.0024C3.85935 41.8729 3.90412 41.7079 3.88208 41.5449C3.86004 41.3819 3.77307 41.2347 3.64091 41.1368C3.49462 41.0283 3.14595 40.7674 2.89603 40.5668C2.92712 40.5102 2.96186 40.4449 2.99417 40.3907C3.08804 40.2255 3.19471 40.0347 3.29895 39.8171C3.49391 39.3908 3.55122 38.9144 3.46292 38.4541C3.32089 37.7062 2.60953 37.3417 2.0847 37.0759C1.90776 36.992 1.73812 36.8936 1.57755 36.7815C1.4512 36.6936 1.33141 36.5966 1.21913 36.4913C1.21913 36.3999 1.31666 36.1768 1.78541 35.6044C2.87454 34.2001 3.80835 32.682 4.57049 31.0766C4.71726 30.8253 4.79936 30.5415 4.80944 30.2506C4.7473 29.6371 4.42136 29.0808 3.91643 28.7267C3.67261 28.5012 3.43732 28.2879 3.41111 28.1001C3.41353 27.9526 3.44675 27.8073 3.50864 27.6734C3.6086 27.4089 3.72503 27.1492 3.84146 26.8895C4.08995 26.3767 4.28817 25.8411 4.43334 25.29L4.48271 25.0773C4.61288 24.4516 4.7831 23.8349 4.99231 23.2309C5.47011 21.9033 6.21416 20.6874 7.1788 19.6577C8.35952 18.4142 10.1468 17.5608 12.6411 17.0591C14.5247 16.6469 16.4359 16.3727 18.3594 16.2387C21.8083 16.0558 24.7689 17.1006 27.9606 19.6047C29.5114 20.7481 30.6437 22.3693 31.1833 24.219C31.611 25.7906 31.8109 27.4154 31.777 29.0437C31.7663 30.5965 31.3141 32.1143 30.4732 33.4197C30.1538 33.9208 29.7868 34.4152 29.432 34.8931H29.4339Z" fill="#F4F4FA"/>
<path d="M25.1443 26.94C24.6672 26.94 24.245 27.179 23.9903 27.5435L22.9527 27.3636C22.954 27.3246 22.9557 27.2856 22.9557 27.2463C22.9557 26.7854 22.8643 26.3456 22.6998 25.9432L24.4573 24.8822C24.6938 25.0624 24.9885 25.1696 25.308 25.1696C26.0842 25.1696 26.7156 24.5378 26.7156 23.7612C26.7156 22.9847 26.0842 22.353 25.308 22.353C24.532 22.353 23.9006 22.9847 23.9006 23.7612C23.9006 23.8437 23.9081 23.9245 23.9218 24.0031L22.1731 25.0588C21.6425 24.4116 20.8821 23.9601 20.0177 23.8303V21.6698C20.6626 21.454 21.1291 20.8442 21.1291 20.1271C21.1291 19.2301 20.3997 18.5002 19.5033 18.5002C18.6069 18.5002 17.8776 19.23 17.8776 20.1271C17.8776 20.8442 18.3439 21.4539 18.9889 21.6698V23.8303C17.811 24.0071 16.8268 24.7818 16.3536 25.8345L13.1334 24.8448C13.1431 24.7652 13.1487 24.6843 13.1487 24.6021C13.1487 23.497 12.2503 22.598 11.1459 22.598C10.0415 22.598 9.14307 23.497 9.14307 24.6021C9.14307 25.707 10.0415 26.606 11.146 26.606C11.8003 26.606 12.3823 26.2903 12.748 25.8033L16.0773 26.8266C16.0606 26.9642 16.051 27.1041 16.051 27.2462C16.051 28.1727 16.4182 29.0146 17.0137 29.6356L15.5632 31.1802C15.3515 31.0857 15.1173 31.0326 14.8709 31.0326C13.9305 31.0326 13.1656 31.7981 13.1656 32.7389C13.1656 33.6796 13.9305 34.445 14.8709 34.445C15.811 34.445 16.576 33.6796 16.576 32.7389C16.576 32.4189 16.4873 32.1194 16.3336 31.8632L17.8321 30.2674C18.3276 30.543 18.8973 30.7005 19.5033 30.7005C20.0823 30.7005 20.628 30.5565 21.1078 30.3034L22.603 32.5782C22.2387 32.9413 22.0129 33.4434 22.0129 33.9972C22.0129 35.1023 22.9114 36.0013 24.0157 36.0013C25.1201 36.0013 26.0186 35.1023 26.0186 33.9972C26.0186 32.8922 25.1201 31.9932 24.0157 31.9932C23.8358 31.9932 23.6614 32.0175 23.4954 32.0623L21.938 29.6928C22.306 29.3261 22.5914 28.8768 22.7652 28.3757L23.7512 28.5467C23.8479 29.2296 24.4357 29.7565 25.1444 29.7565C25.9205 29.7565 26.5519 29.1248 26.5519 28.3482C26.5518 27.5717 25.9204 26.94 25.1443 26.94ZM17.0798 27.2462C17.0798 25.9091 18.167 24.8212 19.5032 24.8212C20.8396 24.8212 21.9268 25.9091 21.9268 27.2462C21.9268 28.5833 20.8396 29.6711 19.5032 29.6711C18.167 29.6711 17.0798 28.5833 17.0798 27.2462Z" fill="#F4F4FA"/>
</svg>
