<svg width="75" height="75" viewBox="0 0 75 75" fill="none" xmlns="http://www.w3.org/2000/svg">
<path fill-rule="evenodd" clip-rule="evenodd" d="M43.7498 14.5369V13.9119C43.7498 11.9431 45.7186 10.5369 47.5311 11.2556C58.1249 15.2869 65.6249 25.5056 65.6249 37.5056C65.6249 49.5056 58.1249 59.7244 47.5311 63.7556C45.7186 64.4431 43.7498 63.0681 43.7498 61.0994V60.4744C43.7498 59.2869 44.4998 58.2556 45.6248 57.8181C53.6874 54.5994 59.3749 46.6931 59.3749 37.5056C59.3749 28.3181 53.6874 20.4119 45.6248 17.1931C44.5311 16.7556 43.7498 15.7244 43.7498 14.5369ZM9.375 31.2556V43.7556C9.375 45.4744 10.7812 46.8806 12.5 46.8806H21.875L32.1562 57.1619C34.125 59.1306 37.5 57.7244 37.5 54.9431V20.0369C37.5 17.2556 34.125 15.8494 32.1562 17.8181L21.875 28.1306H12.5C10.7812 28.1306 9.375 29.5369 9.375 31.2556ZM51.5624 37.5057C51.5624 31.9744 48.3749 27.2244 43.7498 24.9119V50.0682C48.3749 47.7869 51.5624 43.0369 51.5624 37.5057Z" fill="#F4F4FA"/>
</svg>
