<svg width="929" height="512" viewBox="0 0 929 512" fill="none" xmlns="http://www.w3.org/2000/svg">
<rect x="752.699" y="211.003" width="29.5219" height="313.4" rx="14.7609" transform="rotate(30 752.699 211.003)" fill="#F4F4FA"/>
<rect x="509.428" y="323.791" width="29.5219" height="200.584" rx="14.7609" transform="rotate(-30 509.428 323.791)" fill="#F4F4FA"/>
<circle cx="288.127" cy="274.133" r="11.8087" fill="#F4F4FA"/>
<circle cx="483.127" cy="274.133" r="11.8087" fill="#F4F4FA"/>
<circle cx="318.225" cy="226.232" r="20.6653" fill="#F4F4FA"/>
<circle cx="452.661" cy="226.668" r="20.6653" fill="#F4F4FA"/>
<path d="M485.733 214.666C481.781 207.916 485.589 199.291 493.353 198.342C504.107 197.028 515.148 196.674 526.126 197.309C542.508 198.256 558.349 201.379 572.533 206.459C586.717 211.539 598.898 218.451 608.217 226.709C617.536 234.967 623.766 244.369 626.469 254.253C629.171 264.136 628.28 274.26 623.857 283.911C619.435 293.562 611.589 302.505 600.874 310.109C590.158 317.713 576.833 323.793 561.839 327.92C550.266 331.106 537.916 333.069 525.317 333.741C519.147 334.07 514.195 328.946 514.321 322.769V322.769C514.446 316.703 519.432 311.918 525.48 311.43C532.84 310.837 540.038 309.59 546.839 307.717C556.98 304.926 565.992 300.814 573.239 295.671C580.487 290.528 585.793 284.48 588.784 277.953C591.775 271.426 592.378 264.578 590.55 257.894C588.722 251.209 584.508 244.85 578.206 239.265C571.903 233.68 563.665 229.005 554.072 225.569C544.479 222.134 533.765 220.021 522.685 219.381C514.454 218.905 506.17 219.251 498.156 220.393C493.23 221.095 488.247 218.959 485.733 214.666V214.666Z" fill="#F4F4FA"/>
<rect x="0.144531" y="211.002" width="29.5442" height="330.059" rx="14.7721" transform="rotate(-30 0.144531 211.002)" fill="#F4F4FA"/>
<rect x="737.997" y="225.766" width="29.5265" height="330.06" rx="14.7633" transform="rotate(-30 737.997 225.766)" fill="#F4F4FA"/>
<rect x="507.9" y="320.599" width="29.5219" height="204.245" rx="14.7609" transform="rotate(-30 507.9 320.599)" fill="#F4F4FA"/>
<rect x="253.118" y="305.838" width="29.5219" height="204.245" rx="14.7609" transform="rotate(30 253.118 305.838)" fill="#F4F4FA"/>
<rect x="370.996" y="309.03" width="29.5219" height="183.035" rx="14.7609" fill="#F4F4FA"/>
<rect x="454.996" y="309.002" width="29.5219" height="183.035" rx="14.7609" fill="#F4F4FA"/>
<rect x="425.075" y="64.0034" width="11.2063" height="78.4438" rx="5.60313" transform="rotate(90 425.075 64.0034)" fill="#F4F4FA"/>
<rect x="391.457" y="86.4158" width="11.2063" height="44.825" rx="5.60313" transform="rotate(90 391.457 86.4158)" fill="#F4F4FA"/>
<rect x="425.075" y="108.828" width="11.2063" height="78.4438" rx="5.60313" transform="rotate(90 425.075 108.828)" fill="#F4F4FA"/>
<path d="M298.996 91.5177C298.996 80.156 301.234 68.9056 305.582 58.4088C309.929 47.912 316.302 38.3743 324.336 30.3404C332.37 22.3065 341.908 15.9337 352.405 11.5857C362.901 7.23781 374.152 4.99996 385.514 4.99996C396.875 4.99997 408.126 7.23781 418.622 11.5857C429.119 15.9337 438.657 22.3065 446.691 30.3404C454.725 38.3743 461.098 47.912 465.445 58.4088C469.793 68.9056 472.031 80.156 472.031 91.5177C472.031 102.879 469.793 114.13 465.445 124.627C461.098 135.123 454.725 144.661 446.691 152.695C438.657 160.729 429.119 167.102 418.622 171.45C408.126 175.798 396.875 178.035 385.514 178.035C374.152 178.035 362.901 175.798 352.405 171.45C341.908 167.102 332.37 160.729 324.336 152.695C316.302 144.661 309.929 135.123 305.582 124.627C301.234 114.13 298.996 102.879 298.996 91.5177L298.996 91.5177Z" stroke="#F4F4FA" stroke-width="10"/>
<circle cx="385.805" cy="282.809" r="11.8087" fill="#F4F4FA"/>
<circle cx="385.661" cy="235.665" r="20.6653" fill="#F4F4FA"/>
</svg>
