<svg width="900" height="642" viewBox="0 0 900 642" fill="none" xmlns="http://www.w3.org/2000/svg">
<rect x="605.51" y="494.998" width="29.5219" height="313.4" rx="14.7609" transform="rotate(-157.08 605.51 494.998)" fill="#F4F4FA"/>
<rect x="491.432" y="321.788" width="29.5219" height="200.584" rx="14.7609" transform="rotate(-30 491.432 321.788)" fill="#F4F4FA"/>
<circle cx="284.809" cy="265.809" r="11.8087" fill="#F4F4FA"/>
<circle cx="440.809" cy="265.809" r="11.8087" fill="#F4F4FA"/>
<circle cx="304.075" cy="215.51" r="20.6653" fill="#F4F4FA"/>
<circle cx="421.665" cy="215.51" r="20.6653" fill="#F4F4FA"/>
<circle cx="362.809" cy="271.601" r="11.8087" fill="#F4F4FA"/>
<circle cx="363.118" cy="221.414" r="20.6653" fill="#F4F4FA"/>
<path d="M467.521 212.872C463.608 205.94 467.503 197.206 475.4 196.212C486.079 194.867 497.039 194.508 507.936 195.161C524.272 196.14 540.069 199.371 554.212 204.625C568.356 209.88 580.503 217.03 589.796 225.571C599.089 234.113 605.301 243.838 607.996 254.061C610.691 264.284 609.802 274.756 605.392 284.738C600.982 294.72 593.159 303.97 582.473 311.835C571.788 319.7 558.501 325.989 543.548 330.258C532.132 333.518 519.957 335.54 507.534 336.256C501.158 336.623 496.039 331.327 496.165 324.942V324.942C496.289 318.663 501.451 313.712 507.707 313.166C514.902 312.539 521.937 311.261 528.591 309.362C538.703 306.474 547.69 302.221 554.917 296.902C562.144 291.582 567.435 285.326 570.418 278.575C573.4 271.824 574.001 264.741 572.179 257.827C570.356 250.913 566.154 244.336 559.869 238.559C553.584 232.782 545.369 227.946 535.803 224.392C526.237 220.839 515.554 218.654 504.505 217.992C496.466 217.51 488.377 217.842 480.54 218.966C475.352 219.71 470.097 217.436 467.521 212.872V212.872Z" fill="#F4F4FA"/>
<rect y="59.3118" width="29.5442" height="472.35" rx="14.7721" transform="rotate(-22.9198 0 59.3118)" fill="#F4F4FA"/>
<rect x="688.848" y="206.384" width="29.5265" height="472.36" rx="14.7633" transform="rotate(-22.9198 688.848 206.384)" fill="#F4F4FA"/>
<rect x="252.065" y="295.219" width="29.5219" height="204.055" rx="14.7609" transform="rotate(22.92 252.065 295.219)" fill="#F4F4FA"/>
<rect x="348.357" y="307.027" width="29.5219" height="183.035" rx="14.7609" fill="#F4F4FA"/>
<rect x="426.484" y="307.027" width="29.5219" height="183.035" rx="14.7609" fill="#F4F4FA"/>
<rect x="402.079" y="64.0005" width="11.2063" height="78.4438" rx="5.60313" transform="rotate(90 402.079 64.0005)" fill="#F4F4FA"/>
<rect x="368.461" y="86.4128" width="11.2063" height="44.825" rx="5.60313" transform="rotate(90 368.461 86.4128)" fill="#F4F4FA"/>
<rect x="402.079" y="108.825" width="11.2063" height="78.4438" rx="5.60313" transform="rotate(90 402.079 108.825)" fill="#F4F4FA"/>
<path d="M276 91.5177C276 80.156 278.238 68.9056 282.585 58.4088C286.933 47.912 293.306 38.3743 301.34 30.3404C309.374 22.3065 318.912 15.9337 329.409 11.5857C339.905 7.23781 351.156 4.99996 362.517 4.99996C373.879 4.99997 385.13 7.23781 395.626 11.5857C406.123 15.9337 415.661 22.3065 423.695 30.3404C431.729 38.3743 438.101 47.912 442.449 58.4088C446.797 68.9056 449.035 80.156 449.035 91.5177C449.035 102.879 446.797 114.13 442.449 124.627C438.101 135.123 431.729 144.661 423.695 152.695C415.661 160.729 406.123 167.102 395.626 171.45C385.13 175.798 373.879 178.035 362.517 178.035C351.156 178.035 339.905 175.798 329.409 171.45C318.912 167.102 309.374 160.729 301.34 152.695C293.306 144.661 286.933 135.123 282.585 124.627C278.238 114.13 276 102.879 276 91.5177L276 91.5177Z" stroke="#F4F4FA" stroke-width="10"/>
</svg>
