<svg width="1071" height="635" viewBox="0 0 1071 635" fill="none" xmlns="http://www.w3.org/2000/svg">
<rect x="692.566" y="497.176" width="29.5219" height="313.4" rx="14.7609" transform="rotate(-150 692.566 497.176)" fill="#F4F4FA"/>
<rect x="580.432" y="323.791" width="29.5219" height="200.584" rx="14.7609" transform="rotate(-30 580.432 323.791)" fill="#F4F4FA"/>
<circle cx="359.131" cy="274.133" r="11.8087" fill="#F4F4FA"/>
<circle cx="554.131" cy="274.133" r="11.8087" fill="#F4F4FA"/>
<circle cx="389.229" cy="226.232" r="20.6653" fill="#F4F4FA"/>
<circle cx="523.665" cy="226.668" r="20.6653" fill="#F4F4FA"/>
<path d="M556.737 214.666C552.785 207.916 556.593 199.291 564.357 198.342C575.111 197.028 586.152 196.674 597.13 197.309C613.512 198.256 629.353 201.379 643.537 206.459C657.721 211.539 669.901 218.451 679.221 226.709C688.54 234.967 694.77 244.369 697.473 254.253C700.175 264.136 699.284 274.26 694.861 283.911C690.439 293.562 682.593 302.505 671.878 310.109C661.162 317.713 647.837 323.793 632.843 327.92C621.27 331.106 608.92 333.069 596.321 333.741C590.151 334.07 585.199 328.946 585.325 322.769C585.45 316.703 590.436 311.918 596.483 311.43C603.844 310.837 611.042 309.59 617.843 307.717C627.984 304.926 636.996 300.814 644.243 295.671C651.491 290.528 656.797 284.48 659.788 277.953C662.779 271.426 663.382 264.578 661.554 257.894C659.726 251.209 655.512 244.85 649.21 239.265C642.907 233.68 634.669 229.005 625.076 225.569C615.483 222.134 604.769 220.021 593.689 219.381C585.458 218.905 577.173 219.251 569.159 220.393C564.234 221.095 559.251 218.959 556.737 214.666Z" fill="#F4F4FA"/>
<rect y="87.775" width="29.5442" height="472.35" rx="14.7721" transform="rotate(-30 0 87.775)" fill="#F4F4FA"/>
<rect x="809" y="225.766" width="29.5265" height="472.36" rx="14.7633" transform="rotate(-30 809 225.766)" fill="#F4F4FA"/>
<rect x="578.905" y="320.599" width="29.5219" height="204.245" rx="14.7609" transform="rotate(-30 578.905 320.599)" fill="#F4F4FA"/>
<rect x="324.122" y="305.838" width="29.5219" height="204.245" rx="14.7609" transform="rotate(30 324.122 305.838)" fill="#F4F4FA"/>
<rect x="442" y="309.03" width="29.5219" height="183.035" rx="14.7609" fill="#F4F4FA"/>
<rect x="526" y="309.002" width="29.5219" height="183.035" rx="14.7609" fill="#F4F4FA"/>
<rect x="496.079" y="64.0011" width="11.2063" height="78.4438" rx="5.60313" transform="rotate(90 496.079 64.0011)" fill="#F4F4FA"/>
<rect x="462.461" y="86.4135" width="11.2063" height="44.825" rx="5.60313" transform="rotate(90 462.461 86.4135)" fill="#F4F4FA"/>
<rect x="496.079" y="108.826" width="11.2063" height="78.4438" rx="5.60313" transform="rotate(90 496.079 108.826)" fill="#F4F4FA"/>
<path d="M370 91.5177C370 80.156 372.238 68.9056 376.585 58.4088C380.933 47.912 387.306 38.3743 395.34 30.3404C403.374 22.3065 412.912 15.9337 423.409 11.5857C433.905 7.23781 445.156 4.99996 456.517 4.99996C467.879 4.99997 479.13 7.23781 489.626 11.5857C500.123 15.9337 509.661 22.3065 517.695 30.3404C525.729 38.3743 532.101 47.912 536.449 58.4088C540.797 68.9056 543.035 80.156 543.035 91.5177C543.035 102.879 540.797 114.13 536.449 124.627C532.101 135.123 525.729 144.661 517.695 152.695C509.661 160.729 500.123 167.102 489.626 171.45C479.13 175.798 467.879 178.035 456.517 178.035C445.156 178.035 433.905 175.798 423.409 171.45C412.912 167.102 403.374 160.729 395.34 152.695C387.306 144.661 380.933 135.123 376.585 124.627C372.238 114.13 370 102.879 370 91.5177L370 91.5177Z" stroke="#F4F4FA" stroke-width="10"/>
<circle cx="456.809" cy="282.809" r="11.8087" fill="#F4F4FA"/>
<circle cx="456.665" cy="235.665" r="20.6653" fill="#F4F4FA"/>
</svg>
