<svg width="60" height="60" viewBox="0 0 60 60" fill="none" xmlns="http://www.w3.org/2000/svg">
<rect width="60" height="60" rx="30" fill="#8093F1"/>
<path d="M45.9961 26.0614C46.0321 24.3145 45.8171 22.5715 45.3579 20.8856C44.7419 18.7902 43.4634 16.9509 41.714 15.6434C38.273 12.9473 35.057 11.83 31.2972 12.0208C29.3139 12.1581 27.3432 12.4399 25.4009 12.8638C22.6512 13.4167 20.6537 14.3834 19.2937 15.8195C18.216 16.9672 17.3838 18.3226 16.8482 19.803C16.6211 20.4553 16.4362 21.1215 16.2947 21.7975L16.2459 22.0084C16.1175 22.4832 15.9442 22.9447 15.7284 23.3866C15.6028 23.6683 15.4767 23.9499 15.3675 24.24C15.2262 24.562 15.1698 24.9147 15.2036 25.2647C15.3276 25.8092 15.6432 26.291 16.0929 26.6222C16.3922 26.8965 16.5885 27.0885 16.5903 27.2641C16.5665 27.355 16.5306 27.4423 16.4836 27.5237C15.7537 29.0629 14.8589 30.5183 13.815 31.8644C13.3773 32.399 12.9189 33.0226 13.0122 33.6559C13.1454 34.1365 13.4628 34.5452 13.8954 34.7933C14.0971 34.9322 14.3098 35.0546 14.5312 35.1591C14.7939 35.2932 15.2347 35.5175 15.2627 35.679C15.3022 35.8843 15.2791 36.0967 15.1963 36.2886C15.1054 36.4788 15.0134 36.6434 14.9311 36.7866C14.7074 37.1822 14.3325 37.8454 14.8963 38.3197C15.028 38.4355 15.2536 38.6129 15.4596 38.7707C15.3073 39.0385 15.239 39.3457 15.2633 39.6528C15.2964 39.8914 15.4262 40.1059 15.6223 40.2459C15.7589 40.3428 15.9046 40.4287 16.049 40.5092C16.4074 40.7134 16.547 40.8091 16.5976 40.9968C16.6305 41.2452 16.608 41.4977 16.5318 41.7362C16.4964 41.8966 16.4623 42.0563 16.441 42.216C16.3792 42.7704 16.4492 43.3316 16.6452 43.8539C16.9604 45.0123 18.1279 45.7208 19.301 45.4655C21.0416 45.0458 22.7581 44.5325 24.4433 43.9276C25.8136 44.7371 26.6798 47.1857 26.9053 48.1043C26.9721 48.377 27.2165 48.5687 27.4972 48.5688L42.7972 48.5268C42.9902 48.5261 43.1715 48.4342 43.286 48.2789C43.4005 48.1235 43.4346 47.9231 43.3781 47.7386C43.227 47.3226 43.0178 46.93 42.7569 46.5725C42.6129 46.3657 42.4825 46.1497 42.3668 45.9258C42.092 45.3635 41.8617 44.7806 41.678 44.1824C41.3301 43.005 41.0897 41.7984 40.9599 40.5775C40.7439 38.7547 41.0192 36.9073 41.7573 35.2267C42.2084 34.2962 42.7636 33.4197 43.4122 32.6142C43.778 32.1186 44.1601 31.6066 44.5027 31.0659C45.4647 29.5729 45.9826 27.8374 45.9961 26.0614ZM42.4339 31.8931C41.7296 32.7723 41.128 33.729 40.6405 34.7446C39.8157 36.6245 39.5084 38.6907 39.7506 40.7293C39.8871 42.0225 40.1413 43.3005 40.5101 44.5475C40.7121 45.2045 40.9648 45.8449 41.2659 46.4628C41.4046 46.7354 41.5616 46.9984 41.7359 47.2497L41.7798 47.3162L27.958 47.3552C27.552 45.9087 26.8165 44.576 25.8093 43.4613C25.9648 43.4071 26.1141 43.3565 26.2488 43.3077C26.7109 43.1462 27.0601 43.0236 27.2345 42.9688C29.8477 42.1483 31.1546 40.9609 31.1192 39.4388C31.0994 39.1074 30.827 38.8475 30.495 38.8433C30.3333 38.8471 30.1798 38.915 30.0682 39.0321C29.9566 39.1492 29.8962 39.3058 29.9001 39.4675C29.9147 40.0953 29.4008 41.0109 26.8681 41.8057C26.6853 41.863 26.325 41.9886 25.8453 42.1575C25.4107 42.3098 24.8773 42.4964 24.2939 42.6957C22.5769 43.3167 20.8275 43.8446 19.0536 44.2769C18.4824 44.387 17.9266 44.0255 17.7954 43.4589C17.6638 43.1167 17.6135 42.7486 17.6485 42.3836C17.665 42.2574 17.6936 42.1312 17.7217 42.0045C17.8467 41.5814 17.8664 41.1342 17.779 40.7018C17.604 40.1421 17.1935 39.6867 16.6549 39.4547L16.5245 39.3797C16.5898 39.2466 16.668 39.1202 16.7579 39.0024C16.8594 38.8729 16.9041 38.7079 16.8821 38.5449C16.86 38.3819 16.7731 38.2347 16.6409 38.1368C16.4946 38.0283 16.1459 37.7674 15.896 37.5669C15.9271 37.5102 15.9619 37.4449 15.9942 37.3907C16.088 37.2255 16.1947 37.0347 16.2989 36.8171C16.4939 36.3908 16.5512 35.9144 16.4629 35.4541C16.3209 34.7062 15.6095 34.3417 15.0847 34.0759C14.9078 33.992 14.7381 33.8936 14.5775 33.7815C14.4512 33.6936 14.3314 33.5966 14.2191 33.4913C14.2191 33.3999 14.3167 33.1768 14.7854 32.6044C15.8745 31.2001 16.8083 29.682 17.5705 28.0766C17.7173 27.8253 17.7994 27.5415 17.8094 27.2506C17.7473 26.6371 17.4214 26.0808 16.9164 25.7267C16.6726 25.5012 16.4373 25.2879 16.4111 25.1001C16.4135 24.9526 16.4467 24.8073 16.5086 24.6734C16.6086 24.4089 16.725 24.1492 16.8415 23.8895C17.0899 23.3767 17.2882 22.8411 17.4333 22.29L17.4827 22.0773C17.6129 21.4516 17.7831 20.8349 17.9923 20.2309C18.4701 18.9033 19.2142 17.6874 20.1788 16.6577C21.3595 15.4142 23.1468 14.5608 25.6411 14.0591C27.5247 13.6469 29.4359 13.3727 31.3594 13.2387C34.8083 13.0558 37.7689 14.1006 40.9606 16.6047C42.5114 17.7481 43.6437 19.3693 44.1833 21.219C44.611 22.7906 44.8109 24.4154 44.777 26.0437C44.7663 27.5965 44.3141 29.1143 43.4732 30.4197C43.1538 30.9208 42.7868 31.4152 42.432 31.8931H42.4339Z" fill="#F4F4FA"/>
<path d="M38.1443 23.94C37.6672 23.94 37.245 24.179 36.9903 24.5435L35.9527 24.3636C35.954 24.3246 35.9557 24.2856 35.9557 24.2463C35.9557 23.7854 35.8643 23.3456 35.6998 22.9432L37.4573 21.8822C37.6938 22.0624 37.9885 22.1696 38.308 22.1696C39.0842 22.1696 39.7156 21.5378 39.7156 20.7612C39.7156 19.9847 39.0842 19.353 38.308 19.353C37.532 19.353 36.9006 19.9847 36.9006 20.7612C36.9006 20.8437 36.9081 20.9245 36.9218 21.0031L35.1731 22.0588C34.6425 21.4116 33.8821 20.9601 33.0177 20.8303V18.6698C33.6626 18.454 34.1291 17.8442 34.1291 17.1271C34.1291 16.2301 33.3997 15.5002 32.5033 15.5002C31.6069 15.5002 30.8776 16.23 30.8776 17.1271C30.8776 17.8442 31.3439 18.4539 31.9889 18.6698V20.8303C30.811 21.0071 29.8268 21.7818 29.3536 22.8345L26.1334 21.8448C26.1431 21.7652 26.1487 21.6843 26.1487 21.6021C26.1487 20.497 25.2503 19.598 24.1459 19.598C23.0415 19.598 22.1431 20.497 22.1431 21.6021C22.1431 22.707 23.0415 23.606 24.146 23.606C24.8003 23.606 25.3823 23.2903 25.748 22.8033L29.0773 23.8266C29.0606 23.9642 29.051 24.1041 29.051 24.2462C29.051 25.1727 29.4182 26.0146 30.0137 26.6356L28.5632 28.1802C28.3515 28.0857 28.1173 28.0326 27.8709 28.0326C26.9305 28.0326 26.1656 28.7981 26.1656 29.7389C26.1656 30.6796 26.9305 31.445 27.8709 31.445C28.811 31.445 29.576 30.6796 29.576 29.7389C29.576 29.4189 29.4873 29.1194 29.3336 28.8632L30.8321 27.2674C31.3276 27.543 31.8973 27.7005 32.5033 27.7005C33.0823 27.7005 33.628 27.5565 34.1078 27.3034L35.603 29.5782C35.2387 29.9413 35.0129 30.4434 35.0129 30.9972C35.0129 32.1023 35.9114 33.0013 37.0157 33.0013C38.1201 33.0013 39.0186 32.1023 39.0186 30.9972C39.0186 29.8922 38.1201 28.9932 37.0157 28.9932C36.8358 28.9932 36.6614 29.0175 36.4954 29.0623L34.938 26.6928C35.306 26.3261 35.5914 25.8768 35.7652 25.3757L36.7512 25.5467C36.8479 26.2296 37.4357 26.7565 38.1444 26.7565C38.9205 26.7565 39.5519 26.1248 39.5519 25.3482C39.5518 24.5717 38.9204 23.94 38.1443 23.94ZM30.0798 24.2462C30.0798 22.9091 31.167 21.8212 32.5032 21.8212C33.8396 21.8212 34.9268 22.9091 34.9268 24.2462C34.9268 25.5833 33.8396 26.6711 32.5032 26.6711C31.167 26.6711 30.0798 25.5833 30.0798 24.2462Z" fill="#F4F4FA"/>
</svg>
